 http://www.imdb.com/title/tt0948470/


Peter Parker finds a clue that might help him understand why his parents disappeared when he was young. His path puts him on a collision course with Dr. Curt Connors, his father's former partner.



Director: 
Marc Webb

Writers: 
James Vanderbilt (screenplay), Alvin Sargent (screenplay)

Stars:
Andrew Garfield, Emma Stone and Rhys Ifans 

Genres:
Action | Adventure | Fantasy | Thriller 

Thanks : 26k,Devildeeds74 





Format                                   : AVI
Format/Info                              : Audio Video Interleave
File size                                : 689 MiB
Duration                                 : 1h 59mn
Overall bit rate                         : 805 Kbps
Writing application                      : Lavf54.3.100

Video
ID                                       : 0
Format                                   : MPEG-4 Visual
Format profile                           : Simple@L3
Format settings, BVOP                    : No
Format settings, QPel                    : No
Format settings, GMC                     : No warppoints
Format settings, Matrix                  : Default (H.263)
Codec ID                                 : XVID
Codec ID/Hint                            : XviD
Duration                                 : 1h 59mn
Bit rate                                 : 730 Kbps
Width                                    : 640 pixels
Height                                   : 272 pixels
Display aspect ratio                     : 2.35:1
Frame rate                               : 25.000 fps
Color space                              : YUV
Chroma subsampling                       : 4:2:0
Bit depth                                : 8 bits
Scan type                                : Progressive
Compression mode                         : Lossy
Bits/(Pixel*Frame)                       : 0.168
Stream size                              : 625 MiB (91%)
Writing library                          : XviD 64

Audio
ID                                       : 1
Format                                   : AC-3
Format/Info                              : Audio Coding 3
Mode extension                           : CM (complete main)
Format settings, Endianness              : Big
Codec ID                                 : 2000
Duration                                 : 1h 59mn
Bit rate mode                            : Constant
Bit rate                                 : 64.0 Kbps
Channel(s)                               : 2 channels
Channel positions                        : Front: L R
Sampling rate                            : 48.0 KHz
Bit depth                                : 16 bits
Compression mode                         : Lossy
Stream size                              : 54.8 MiB (8%)
Alignment                                : Aligned on interleaves
Interleave, duration                     : 32 ms (0.80 video frame)

********************************************************************

Screens;
 
http://s19.postimage.org/c05a1nqoj/1_AQxnd_Yh.png 
http://s19.postimage.org/f89repcyb/Cf55_Utw_W.png 
http://s19.postimage.org/4a33a9dqr/RM4_Uy4_Ux.png 
http://s19.postimage.org/6fxe4rh77/M4n_Fw_Hp.png

********************************************************************

Thanks to Original Uploader !

